:SAMPLES-PER-SECOND 30
:FULLY-SPECIFIED
:DEGREES
177
root  -26.4144 34.6154 4.60582 -171.476 66.4931 -179.946
RightUpLeg  -8.47232 -11.9404 -4.96854
RightLeg  8.6274 -1.88099 -0.16145
RightFoot  6.65736 0.0358855 -0.0694057
RightToes  -30.0462 -0.145126 -0.253342
Spine  -1.92915 -0.57877 -0.637853
Spine1  -3.93221 -1.12285 -0.655568
HEad  -71.0144 -3.38576 8.74557
LeftShoulder1  -1.94126e-019 -3.10601e-018 -2.51263e-017
LeftArm  -5.49031 23.7038 -77.1645
LeftForeArm  32.0559 -13.8806 -2.40658
LeftHand  -0.360552 -1.25714 6.44661
RightShoulder  -4.96962e-017 0 -2.36833e-017
RightArm  -29.6537 -22.7774 75.3821
RightForeArm  54.2982 12.6757 1.43744
RightHand  -0.293945 -1.5252 -8.68646
LeftUpLeg  -4.0102 4.20358 0.758557
LeftLeg  4.41626 16.8045 0.211744
LeftFoot  3.97413 -0.0449704 1.31507
LeftToes  -18.5094 1.49739e-006 1.00523e-007
178
root  -26.3734 34.6295 4.65162 -171.129 66.3947 -179.717
RightUpLeg  -8.26756 -12.1016 -4.74965
RightLeg  8.02032 -1.85231 -0.139202
RightFoot  6.92876 0.0372243 -0.0723149
RightToes  -29.9708 -0.143368 -0.2517
Spine  -1.92428 -0.526192 -0.749062
Spine1  -3.92588 -1.0061 -0.871796
HEad  -70.7185 -3.80609 7.96522
LeftShoulder1  -1.94126e-019 -3.10601e-018 -2.51263e-017
LeftArm  -5.14084 23.7015 -76.6575
LeftForeArm  31.6051 -14.0809 -2.4266
LeftHand  -0.355756 -1.25541 6.36412
RightShoulder  -4.96962e-017 0 -2.36833e-017
RightArm  -29.0706 -22.1336 75.6815
RightForeArm  54.2622 12.9714 1.40671
RightHand  -0.294337 -1.4947 -8.63371
LeftUpLeg  -4.01008 4.26448 0.941053
LeftLeg  4.15225 16.6925 0.134566
LeftFoot  4.12539 -0.0475874 1.35607
LeftToes  -18.4482 1.49739e-006 1.00523e-007
179
root  -26.3401 34.6455 4.70874 -170.866 66.0635 -179.491
RightUpLeg  -8.0536 -12.3861 -4.51563
RightLeg  7.60813 -1.93595 -0.131531
RightFoot  7.11461 0.0391064 -0.0866309
RightToes  -29.8326 -0.141683 -0.250055
Spine  -1.88536 -0.511187 -0.866736
Spine1  -3.85062 -0.966991 -1.10481
HEad  -70.0797 -4.20698 7.61127
LeftShoulder1  -1.94126e-019 -3.10601e-018 -2.51263e-017
LeftArm  -4.8706 23.4476 -76.1968
LeftForeArm  31.3685 -14.4489 -2.48401
LeftHand  -0.363782 -0.8373 6.90547
RightShoulder  -4.96962e-017 0 -2.36833e-017
RightArm  -28.4876 -21.5908 75.9975
RightForeArm  53.6899 13.4188 1.36185
RightHand  -0.296378 -1.57936 -8.87854
LeftUpLeg  -3.98835 4.17197 1.17021
LeftLeg  3.89909 16.4817 0.0611137
LeftFoot  4.36961 -0.0516705 1.41472
LeftToes  -18.6926 1.49739e-006 1.00523e-007
180
root  -26.3273 34.6709 4.77747 -170.795 65.559 -179.409
RightUpLeg  -7.86302 -12.6596 -4.33208
RightLeg  7.36508 -2.18634 -0.139357
RightFoot  7.23104 0.0419059 -0.119392
RightToes  -29.6035 -0.140227 -0.248492
Spine  -1.81842 -0.447861 -0.966392
Spine1  -3.71516 -0.838951 -1.29217
HEad  -69.2811 -4.9471 7.34215
LeftShoulder1  -1.94126e-019 -3.10601e-018 -2.51263e-017
LeftArm  -4.80822 22.7843 -76.0111
LeftForeArm  31.2377 -14.5717 -2.50181
LeftHand  -0.352506 -1.05464 6.48678
RightShoulder  -4.96962e-017 0 -2.36833e-017
RightArm  -27.8782 -21.2295 76.141
RightForeArm  53.0028 14.0404 1.29709
RightHand  -0.294187 -1.64145 -8.95001
LeftUpLeg  -3.91106 3.83622 1.35377
LeftLeg  3.51598 16.3524 -0.0471669
LeftFoot  4.74721 -0.0590927 1.51905
LeftToes  -18.8976 1.49739e-006 1.00523e-007
181
root  -26.3265 34.6939 4.85852 -170.749 65.0148 -179.365
RightUpLeg  -7.76899 -12.7962 -4.14293
RightLeg  7.26151 -2.61712 -0.162249
RightFoot  7.28806 0.0459985 -0.173242
RightToes  -29.3035 -0.139154 -0.247096
Spine  -1.71872 -0.342024 -1.07651
Spine1  -3.51417 -0.62888 -1.50275
HEad  -68.5972 -5.72209 7.36939
LeftShoulder1  -1.94126e-019 -3.10601e-018 -2.51263e-017
LeftArm  -5.1458 21.907 -75.98
LeftForeArm  31.4988 -14.7174 -2.52216
LeftHand  -0.359225 -1.04226 6.61991
RightShoulder  -4.96962e-017 0 -2.36833e-017
RightArm  -27.2483 -20.8916 76.2536
RightForeArm  52.2308 14.6464 1.24138
RightHand  -0.296275 -1.65173 -8.98219
LeftUpLeg  -3.89428 3.39396 1.53273
LeftLeg  3.16907 16.2899 -0.144257
LeftFoot  5.12844 -0.0673052 1.62833
LeftToes  -19.0497 1.49739e-006 1.00523e-007
182
root  -26.3366 34.7126 4.94876 -170.693 64.3339 -179.384
RightUpLeg  -7.67793 -13.0965 -3.95225
RightLeg  7.03402 -3.00302 -0.174337
RightFoot  7.33084 0.0497447 -0.222289
RightToes  -29.0049 -0.138336 -0.245831
Spine  -1.63373 -0.227074 -1.19668
Spine1  -3.34209 -0.402217 -1.73675
HEad  -67.7992 -6.53859 7.48526
LeftShoulder1  -1.94126e-019 -3.10601e-018 -2.51263e-017
LeftArm  -5.5249 21.0654 -75.9952
LeftForeArm  31.3036 -15.3123 -2.61846
LeftHand  -0.373163 -1.0405 6.874
RightShoulder  -4.96962e-017 0 -2.36833e-017
RightArm  -26.8206 -20.5529 76.3736
RightForeArm  51.8369 15.0053 1.21362
RightHand  -0.296125 -1.67715 -9.14394
LeftUpLeg  -4.01008 2.92623 1.69866
LeftLeg  2.8594 16.1204 -0.228752
LeftFoot  5.51083 -0.0752512 1.72503
LeftToes  -19.2371 1.49739e-006 1.00523e-007
